HIERARCHY
ROOT SpineBase
{
  OFFSET 0.000000 0.000000 0.000000
  CHANNELS 6 Xposition Yposition Zposition Zrotation Xrotation Yrotation
  JOINT SpineMid
  {
    OFFSET 0.000000 27.285397 0.000000
    CHANNELS 3 Zrotation Xrotation Yrotation
    JOINT SpineShoulder
    {
      OFFSET -0.053365 20.307933 -0.640993
      CHANNELS 3 Zrotation Xrotation Yrotation
      JOINT Neck
      {
        OFFSET -0.046217 6.727552 -0.514820
        CHANNELS 3 Zrotation Xrotation Yrotation
        JOINT Head
        {
          OFFSET -2.302811 10.763270 -1.117633
          CHANNELS 3 Zrotation Xrotation Yrotation
          End Site
          {
            OFFSET 0 0 0
          }
        }
      }
      JOINT ShoulderLeft
      {
        OFFSET -16.543827 -0.948754 5.893105
        CHANNELS 3 Zrotation Xrotation Yrotation
        JOINT ElbowLeft
        {
          OFFSET 16.947585 -7.542741 -29.361579
          CHANNELS 3 Zrotation Xrotation Yrotation
          JOINT WristLeft
          {
            OFFSET 5.483216 -7.450055 -9.881097
            CHANNELS 3 Zrotation Xrotation Yrotation
            JOINT HandLeft
            {
              OFFSET -0.706003 -3.616470 -1.835629
              CHANNELS 3 Zrotation Xrotation Yrotation
              JOINT HandTipLeft
              {
                OFFSET 3.304951 -0.393832 -1.796990
                CHANNELS 3 Zrotation Xrotation Yrotation
                End Site
                {
                  OFFSET 0 0 0
                }
              }
              JOINT ThumbLeft
              {
                OFFSET -3.282380 3.040372 -3.362953
                CHANNELS 3 Zrotation Xrotation Yrotation
                End Site
                {
                  OFFSET 0 0 0
                }
              }
            }
          }
        }
      }
      JOINT ShoulderRight
      {
        OFFSET 15.564412 0.328426 -4.434568
        CHANNELS 3 Zrotation Xrotation Yrotation
        JOINT ElbowRight
        {
          OFFSET 8.347855 -20.537502 -6.126691
          CHANNELS 3 Zrotation Xrotation Yrotation
          JOINT WristRight
          {
            OFFSET -8.148951 0.577552 -21.361408
            CHANNELS 3 Zrotation Xrotation Yrotation
            JOINT HandRight
            {
              OFFSET -12.264889 1.285829 -4.418834
              CHANNELS 3 Zrotation Xrotation Yrotation
              JOINT HandTipRight
              {
                OFFSET -3.579056 2.289252 -2.741542
                CHANNELS 3 Zrotation Xrotation Yrotation
                End Site
                {
                  OFFSET 0 0 0
                }
              }
              JOINT ThumbRight
              {
                OFFSET 1.781098 1.148540 -3.983694
                CHANNELS 3 Zrotation Xrotation Yrotation
                End Site
                {
                  OFFSET 0 0 0
                }
              }
            }
          }
        }
      }
    }
  }
  JOINT HipLeft
  {
    OFFSET -7.246038 0.202500 -1.654072
    CHANNELS 3 Zrotation Xrotation Yrotation
    JOINT KneeLeft
    {
      OFFSET -5.425810 -31.982407 3.365601
      CHANNELS 3 Zrotation Xrotation Yrotation
      JOINT AnkleLeft
      {
        OFFSET -2.310557 -35.733488 6.025230
        CHANNELS 3 Zrotation Xrotation Yrotation
        JOINT FootLeft
        {
          OFFSET -1.561367 -7.028517 -7.358048
          CHANNELS 3 Zrotation Xrotation Yrotation
          End Site
          {
            OFFSET 0 0 0
          }
        }
      }
    }
  }
  JOINT HipRight
  {
    OFFSET 6.795680 1.070982 -5.143735
    CHANNELS 3 Zrotation Xrotation Yrotation
    JOINT KneeRight
    {
      OFFSET 5.396117 -27.997198 2.984906
      CHANNELS 3 Zrotation Xrotation Yrotation
      JOINT AnkleRight
      {
        OFFSET 2.564666 -37.763924 9.378953
        CHANNELS 3 Zrotation Xrotation Yrotation
        JOINT FootRight
        {
          OFFSET -2.023726 -4.885049 -11.199555
          CHANNELS 3 Zrotation Xrotation Yrotation
          End Site
          {
            OFFSET 0 0 0
          }
        }
      }
    }
  }
}
MOTION
Frames: 14
Frame Time: 0.033333
25.017923 75.936275 364.953545 -0.000000 0.000000 13.956461 -0.000000 0.000000 -13.956461 -0.000000 0.000000 0.000000 -0.000000 0.000000 0.000000 0.000000 0.000000 0.000000 -0.000000 0.000000 0.000000 -0.000000 0.000000 0.000000 -0.000000 0.000000 0.000000 -0.000000 0.000000 0.000000 0.000000 0.000000 0.000000 0.000000 0.000000 0.000000 -0.000000 0.000000 0.000000 -0.000000 0.000000 0.000000 -0.000000 0.000000 0.000000 -0.000000 0.000000 0.000000 0.000000 0.000000 0.000000 0.000000 0.000000 0.000000 -0.000000 0.000000 -13.956461 -0.000000 0.000000 0.000000 -0.000000 0.000000 0.000000 0.000000 0.000000 0.000000 -0.000000 0.000000 -13.956461 -0.000000 0.000000 0.000000 -0.000000 0.000000 0.000000 0.000000 0.000000 0.000000
25.029853 75.954555 364.942782 -0.005273 0.045120 13.852023 -0.005683 -0.045070 -13.852024 -0.000000 0.000000 0.000000 -0.000000 0.000000 0.000000 0.000000 0.000000 0.000000 -5.654893 -9.291709 1.130702 14.447139 24.932640 -2.706471 18.664215 7.714158 -18.237430 -19.504549 -30.183306 11.910140 0.000000 0.000000 0.000000 0.000000 0.000000 0.000000 -0.000000 0.000000 0.000000 0.276443 -0.181593 7.004323 -3.227863 1.489036 -9.846406 4.200921 -2.276939 1.661765 0.000000 0.000000 0.000000 0.000000 0.000000 0.000000 -0.005683 -0.045070 -13.852024 -0.000000 0.000000 0.000000 1.837788 5.281706 -3.046059 0.000000 0.000000 0.000000 -0.005683 -0.045070 -13.852024 -0.000000 0.000000 0.000000 -0.384103 -4.800992 3.152453 0.000000 0.000000 0.000000
25.040393 75.973906 364.936173 -0.004111 0.083166 13.785098 -0.015824 -0.081750 -13.785106 -0.000000 0.000000 0.000000 -0.000000 0.000000 0.000000 0.000000 0.000000 0.000000 -12.708812 -20.814483 1.229767 31.671889 42.363421 -12.590112 31.258044 8.845655 -26.934590 -29.784253 -46.966074 15.400351 0.000000 0.000000 0.000000 0.000000 0.000000 0.000000 -0.000000 0.000000 0.000000 0.411182 -0.115461 12.433247 -6.838321 3.990352 -19.090664 9.482350 -4.139946 4.771303 0.000000 0.000000 0.000000 0.000000 0.000000 0.000000 -0.015824 -0.081750 -13.785106 -0.000000 0.000000 0.000000 3.492003 8.915157 -5.497668 0.000000 0.000000 0.000000 -0.015824 -0.081750 -13.785106 -0.000000 0.000000 0.000000 -0.583745 -8.792520 5.979980 0.000000 0.000000 0.000000
25.049541 75.994328 364.933716 0.003466 0.114202 13.755651 -0.030521 -0.110102 -13.755684 -0.000000 0.000000 0.000000 -0.000000 0.000000 0.000000 0.000000 0.000000 0.000000 -20.896437 -32.796880 -0.478448 55.162284 53.097171 -30.473997 37.509492 8.265452 -30.344446 -36.419870 -55.229677 15.654392 0.000000 0.000000 0.000000 0.000000 0.000000 0.000000 -0.000000 0.000000 0.000000 0.403441 0.136457 16.634477 -10.544468 7.553948 -28.045520 15.890123 -5.402014 9.210445 0.000000 0.000000 0.000000 0.000000 0.000000 0.000000 -0.030521 -0.110102 -13.755684 -0.000000 0.000000 0.000000 4.830409 11.051536 -7.307698 0.000000 0.000000 0.000000 -0.441105 -0.960912 -13.958462 0.193263 0.924711 0.197381 -0.712248 -11.570109 8.255508 0.000000 0.000000 0.000000
25.057297 76.015820 364.935413 0.017451 0.138275 13.763686 -0.049848 -0.130153 -13.763764 -0.000000 0.000000 0.000000 -0.467585 -0.773324 -0.217202 0.000000 0.000000 0.000000 -29.297470 -42.643198 -3.983495 79.899684 56.486468 -51.062863 41.080512 7.750509 -31.952023 -41.485255 -59.730357 15.273299 0.000000 0.000000 0.000000 0.000000 0.000000 0.000000 -0.000000 0.000000 0.000000 0.261180 0.537971 19.889849 -13.633456 11.652503 -36.478307 22.671790 -5.830647 14.215801 0.000000 0.000000 0.000000 0.000000 0.000000 0.000000 -0.049848 -0.130153 -13.763764 -0.000000 0.000000 0.000000 5.782156 11.833771 -8.456833 0.000000 0.000000 0.000000 -0.549244 -1.164001 -14.011178 -0.101399 1.901070 0.218630 -0.559553 -13.651047 9.813306 0.000000 0.000000 0.000000
25.063663 76.038384 364.941262 0.037852 0.155421 13.809249 -0.073856 -0.141894 -13.809392 -0.000000 0.000000 0.000000 -0.686539 -0.806810 -0.248880 0.000000 0.000000 0.000000 -36.253637 -48.886079 -7.928242 96.363763 55.703565 -64.958754 43.522876 7.540534 -32.966531 -45.946332 -62.449752 14.856935 0.000000 0.000000 0.000000 0.000000 0.000000 0.000000 -0.000000 0.000000 0.000000 -0.008300 1.072147 22.409533 -15.282781 14.941809 -43.576841 28.294539 -5.679239 18.274387 0.000000 0.000000 0.000000 0.000000 0.000000 0.000000 -0.073856 -0.141894 -13.809392 -0.000000 0.000000 0.000000 6.318608 11.342190 -8.938120 0.000000 0.000000 0.000000 -0.640110 -1.311447 -14.090189 -0.102927 2.124174 0.249269 -0.853637 -13.441676 10.500084 0.000000 0.000000 0.000000
25.070988 76.063735 364.954603 0.065681 0.166660 13.893257 -0.103777 -0.146014 -13.893484 -0.000000 0.000000 0.000000 -0.922803 -0.784658 -0.270297 0.000000 0.000000 0.000000 -38.216601 -50.158823 -9.640145 98.878511 55.829844 -66.947779 47.205703 7.481060 -34.498349 -51.560475 -64.280263 15.135496 0.000000 0.000000 0.000000 0.000000 0.000000 0.000000 -0.000000 0.000000 0.000000 -1.055698 2.738618 26.101787 -13.392282 13.343816 -49.244906 29.014000 -6.166328 18.434897 0.000000 0.000000 0.000000 0.000000 0.000000 0.000000 -0.103777 -0.146014 -13.893484 -0.000000 0.000000 0.000000 5.028476 4.018296 -6.164768 0.000000 0.000000 0.000000 -0.832593 -1.526535 -14.235975 -0.041319 2.449062 0.304456 -2.716096 -5.695791 9.784673 0.000000 0.000000 0.000000
25.094208 76.077953 364.960173 0.106920 0.175342 13.933850 -0.145997 -0.144435 -13.934198 -0.000000 0.000000 0.000000 -1.184092 -0.721678 -0.285265 0.000000 0.000000 0.000000 -40.340373 -51.624170 -11.067463 100.897943 55.047299 -68.995027 47.924012 8.721505 -35.474682 -57.674341 -66.483914 12.495252 0.000000 0.000000 0.000000 0.000000 0.000000 0.000000 -0.000000 0.000000 0.000000 -1.597790 3.516278 27.818344 -11.383975 11.228273 -57.430402 30.342112 -4.294670 23.619144 0.000000 0.000000 0.000000 0.000000 0.000000 0.000000 -0.145997 -0.144435 -13.934198 -0.000000 0.000000 0.000000 7.145703 -0.786626 -7.412521 0.000000 0.000000 0.000000 -0.866198 -1.731662 -14.309721 -0.166569 2.701947 0.328765 -2.429960 -6.587854 9.797090 0.000000 0.000000 0.000000
25.086629 76.101774 364.987487 0.138596 0.154308 14.137360 -0.172088 -0.115782 -14.137720 -0.000000 0.000000 0.000000 -1.574612 -0.462677 -0.269542 0.000000 0.000000 0.000000 -40.258916 -51.601421 -10.944866 98.479760 54.344729 -67.755968 45.715340 10.908448 -35.462544 -61.383027 -67.506829 11.162781 0.000000 0.000000 0.000000 0.000000 0.000000 0.000000 -0.000000 0.000000 0.000000 -1.520780 3.409468 27.529321 -10.691500 9.547713 -54.153039 30.790121 -7.448152 18.983413 0.000000 0.000000 0.000000 0.000000 0.000000 0.000000 -0.172088 -0.115782 -14.137720 -0.000000 0.000000 0.000000 7.319374 -0.191176 -7.730057 0.000000 0.000000 0.000000 -0.906469 -1.473804 -14.476608 0.053733 2.266649 0.308691 -2.218178 -7.703307 9.766487 0.000000 0.000000 0.000000
25.047002 76.141644 365.019980 0.159981 0.136572 14.435596 -0.188977 -0.092377 -14.435939 -0.000000 0.000000 0.000000 -2.066308 -0.194555 -0.260677 0.000000 0.000000 0.000000 -43.681240 -54.213514 -12.354381 103.238747 51.714691 -72.633240 44.200451 12.363717 -35.341724 -65.746642 -68.703383 13.697834 0.000000 0.000000 0.000000 0.000000 0.000000 0.000000 0.741120 -0.298955 -0.340045 -0.980971 1.787589 25.704513 -13.901630 14.423068 -46.438698 35.785195 -12.403568 13.004851 0.000000 0.000000 0.000000 0.000000 0.000000 0.000000 -0.188977 -0.092377 -14.435939 -0.000000 0.000000 0.000000 6.119647 5.010450 -7.527810 0.000000 0.000000 0.000000 -0.636584 -1.039939 -14.659626 0.193276 1.029976 0.217527 -1.023136 -11.979519 9.438446 0.000000 0.000000 0.000000
25.012686 76.187299 365.044124 0.191798 0.131845 14.764831 -0.219066 -0.078610 -14.765202 -0.000000 0.000000 0.000000 -2.507873 0.090950 -0.240148 0.000000 0.000000 0.000000 -45.357912 -55.765340 -12.382036 105.655493 49.233297 -75.459612 41.869673 14.268469 -35.145874 -67.223492 -69.911109 14.145335 0.000000 0.000000 0.000000 0.000000 0.000000 0.000000 1.258264 -0.548355 -0.590449 -0.236087 -0.088782 22.002230 -17.779244 17.768924 -36.759889 39.527600 -17.637531 7.361266 0.000000 0.000000 0.000000 0.000000 0.000000 0.000000 -0.219066 -0.078610 -14.765202 -0.000000 0.000000 0.000000 10.422720 7.976533 -12.719180 0.000000 0.000000 0.000000 -0.539670 -0.816035 -14.933816 0.119757 0.795132 0.165280 -1.418639 -6.340645 6.601410 0.000000 0.000000 0.000000
24.988192 76.231919 365.064889 0.245671 0.137937 15.088563 -0.273108 -0.069229 -15.089024 -0.000000 0.000000 0.000000 -2.961420 0.357613 -0.223126 0.000000 0.000000 0.000000 -43.565224 -55.242434 -10.089545 104.140751 47.355217 -75.372564 39.842718 14.112072 -33.607821 -66.186803 -68.853782 28.215239 0.000000 0.000000 0.000000 0.000000 0.000000 0.000000 3.874893 -2.565047 -2.097323 -2.496942 1.020495 21.459532 -18.614362 17.501424 -31.371993 40.681749 -19.583083 6.037893 0.000000 0.000000 0.000000 0.000000 0.000000 0.000000 -0.273108 -0.069229 -15.089024 -0.000000 0.000000 0.000000 11.508874 2.246743 -12.785288 0.000000 0.000000 0.000000 -0.273108 -0.069229 -15.089024 -0.000000 0.000000 0.000000 -0.357014 -2.059129 1.734300 0.000000 0.000000 0.000000
24.971188 76.272718 365.081122 0.306073 0.162040 15.362048 -0.338065 -0.075164 -15.362702 -0.000000 0.000000 0.000000 -3.381518 0.536326 -0.222162 0.000000 0.000000 0.000000 -53.544059 -60.708394 -16.628888 115.332753 42.334980 -84.838021 37.795634 13.879736 -32.479099 -61.208187 -67.339508 40.011335 0.000000 0.000000 0.000000 0.000000 0.000000 0.000000 1.162965 -0.458302 -0.527030 1.186625 -2.722197 18.090712 -18.580333 17.557165 -26.927433 38.584080 -22.592466 1.601132 0.000000 0.000000 0.000000 0.000000 0.000000 0.000000 -0.338065 -0.075164 -15.362702 -0.000000 0.000000 0.000000 11.539939 1.516479 -12.669566 0.000000 0.000000 0.000000 -0.338065 -0.075164 -15.362702 -0.000000 0.000000 0.000000 -0.240530 -5.261260 3.038262 0.000000 0.000000 0.000000
24.965170 76.307932 365.095698 0.367169 0.193247 15.564704 -0.405558 -0.087636 -15.565634 -0.000000 0.000000 0.000000 -3.661918 0.627937 -0.227638 0.000000 0.000000 0.000000 -72.329252 -66.323802 -31.533367 128.050012 35.355778 -94.179545 35.907694 13.515144 -31.770368 -59.145331 -67.352612 44.533875 0.000000 0.000000 0.000000 0.000000 0.000000 0.000000 -1.430509 1.345034 0.991835 4.182628 -5.766318 14.913823 -17.041304 16.182523 -23.479254 27.313744 -19.990069 -4.298576 0.000000 0.000000 0.000000 0.000000 0.000000 0.000000 -0.405558 -0.087636 -15.565634 -0.000000 0.000000 0.000000 7.563603 6.753371 -9.413196 0.000000 0.000000 0.000000 -0.405558 -0.087636 -15.565634 -0.000000 0.000000 0.000000 0.681519 -15.796568 7.521232 0.000000 0.000000 0.000000
